<svg xmlns="http://www.w3.org/2000/svg" width="15.593" height="12.273" viewBox="0 0 15.593 12.273"><defs><style>.a{fill:#fff;}</style></defs><g transform="translate(0 0)"><g transform="translate(0 0)"><path class="a" d="M15.074,46.712a1.676,1.676,0,0,0-1.23-.519h-2.46v-.03a1.331,1.331,0,0,0-.4-.963,1.356,1.356,0,0,0-.963-.4H5.573a1.366,1.366,0,0,0-1.378,1.364v.03H1.749a1.676,1.676,0,0,0-1.23.519A1.762,1.762,0,0,0,0,47.942v7.381a1.676,1.676,0,0,0,.519,1.23,1.762,1.762,0,0,0,1.23.519H13.844a1.676,1.676,0,0,0,1.23-.519,1.762,1.762,0,0,0,.519-1.23V47.942A1.676,1.676,0,0,0,15.074,46.712Zm-.252,8.612h-.015a.962.962,0,0,1-.963.963H1.749a.962.962,0,0,1-.963-.963V47.942a.962.962,0,0,1,.963-.963H4.61a.4.4,0,0,0,.4-.4v-.43a.558.558,0,0,1,.578-.578H10.02a.558.558,0,0,1,.578.578v.43a.4.4,0,0,0,.4.4h2.861a.962.962,0,0,1,.963.963Z" transform="translate(0 -44.8)"/><path class="a" d="M115.646,130.8a3.644,3.644,0,1,0,2.579,1.067A3.653,3.653,0,0,0,115.646,130.8Zm2.016,5.677a2.863,2.863,0,0,1-4.032,0,2.834,2.834,0,0,1-.83-2.016,2.9,2.9,0,0,1,.83-2.016,2.834,2.834,0,0,1,2.016-.83,2.9,2.9,0,0,1,2.016.83,2.834,2.834,0,0,1,.83,2.016A2.774,2.774,0,0,1,117.662,136.477Z" transform="translate(-107.85 -127.613)"/><circle class="a" cx="0.726" cy="0.726" r="0.726" transform="translate(12.347 3.172)"/></g></g></svg>