<svg xmlns="http://www.w3.org/2000/svg" width="44.532" height="35" viewBox="0 0 44.532 35"><defs><style>.a,.d{fill:#fedb41;}.b{fill:#40c518;}.c{fill:#1d4f61;}.d{opacity:0.78;}.e{fill:#00efd1;}</style></defs><path class="a" d="M304.823.191A8.652,8.652,0,1,1,296.2,9.546q-.029-.348-.028-.7A8.651,8.651,0,0,1,304.823.191Zm0,0" transform="translate(-268.943 -0.191)"/><path class="a" d="M365.524,37.935v.13h-5.575v-1.88a2.8,2.8,0,0,1,2.787-2.813h.023a2.789,2.789,0,0,1,2.765,2.813Zm0,0" transform="translate(-326.857 -30.321)"/><path class="b" d="M38.6,326.609v4.99H0v-4.99Zm0,0" transform="translate(0 -296.599)"/><path class="c" d="M38.6,262.66v5.879H0V262.66Zm0,0" transform="translate(0 -238.53)"/><path class="b" d="M38.6,109.455v7.262H0V101.941H27.257A8.658,8.658,0,0,0,38.6,109.455Zm0,0" transform="translate(0 -92.587)"/><path class="d" d="M41.43,143.371h6.687v6.279H41.43Zm0,0" transform="translate(-37.621 -130.208)"/><path class="e" d="M360.076,33.038a.552.552,0,0,1-.552-.552v-1.75a2.24,2.24,0,0,0-2.213-2.261h-.023a2.251,2.251,0,0,0-2.236,2.261v1.75a.552.552,0,1,1-1.1,0v-1.75a3.356,3.356,0,0,1,3.339-3.365h.023a3.344,3.344,0,0,1,3.316,3.365v1.75A.551.551,0,0,1,360.076,33.038Zm0,0" transform="translate(-321.408 -24.872)"/><path class="b" d="M356.321,84.418v6.508h-7.649V84.418Zm0,0" transform="translate(-316.616 -76.675)"/><path class="a" d="M384.122,117.381a.552.552,0,0,1-.552-.552v-.907a.552.552,0,0,1,1.1,0v.907A.552.552,0,0,1,384.122,117.381Zm0,0" transform="translate(-348.306 -104.782)"/></svg>