<svg xmlns="http://www.w3.org/2000/svg" width="32.606" height="35.57" viewBox="0 0 32.606 35.57"><defs><style>.a{fill:#40c518;}</style></defs><path class="a" d="M138.89,422.669a5.565,5.565,0,0,1-5.558-5.558,1.112,1.112,0,1,1,2.223,0,3.335,3.335,0,0,0,6.669,0,1.112,1.112,0,1,1,2.223,0A5.565,5.565,0,0,1,138.89,422.669Zm0,0" transform="translate(-124.069 -387.099)"/><path class="a" d="M27.048,90.678H2.594A2.594,2.594,0,0,1,.907,86.113a1.025,1.025,0,0,1,.119-.089A9.961,9.961,0,0,0,4.446,78.51V74.375A10.387,10.387,0,0,1,14.821,64a4.465,4.465,0,0,1,.731.045,1.111,1.111,0,1,1-.365,2.192,2.332,2.332,0,0,0-.366-.013,8.161,8.161,0,0,0-8.151,8.151V78.51a12.19,12.19,0,0,1-4.3,9.294c-.022.018-.042.034-.065.05a.367.367,0,0,0-.078.23.375.375,0,0,0,.37.37H27.048a.375.375,0,0,0,.371-.37.354.354,0,0,0-.08-.23c-.022-.016-.042-.033-.064-.05a12.187,12.187,0,0,1-4.3-9.294V76.894a1.112,1.112,0,0,1,2.223,0V78.51a9.964,9.964,0,0,0,3.425,7.519,1.081,1.081,0,0,1,.114.086,2.593,2.593,0,0,1-1.687,4.563Zm0,0" transform="translate(0 -59.554)"/><path class="a" d="M263.41,14.821a7.41,7.41,0,1,1,7.41-7.41A7.419,7.419,0,0,1,263.41,14.821Zm0-12.6A5.187,5.187,0,1,0,268.6,7.41a5.193,5.193,0,0,0-5.187-5.187Zm0,0" transform="translate(-238.215)"/></svg>