<svg xmlns="http://www.w3.org/2000/svg" width="29.5" height="29.5" viewBox="0 0 29.5 29.5"><defs><style>.a{fill:#fbbb00;}.b{fill:#518ef8;}.c{fill:#28b446;}.d{fill:#f14336;}</style></defs><path class="a" d="M6.538,148.129l-1.027,3.833-3.753.079a14.776,14.776,0,0,1-.109-13.773h0l3.341.613L6.455,142.2a8.8,8.8,0,0,0,.083,5.927Z" transform="translate(0 -130.301)"/><path class="b" d="M275.8,208.176a14.744,14.744,0,0,1-5.258,14.258h0l-4.209-.215-.6-3.718a8.791,8.791,0,0,0,3.782-4.489h-7.887v-5.835H275.8Z" transform="translate(-246.554 -196.181)"/><path class="c" d="M52.734,317.833h0a14.755,14.755,0,0,1-22.226-4.513l4.78-3.913A8.772,8.772,0,0,0,47.93,313.9Z" transform="translate(-28.751 -291.582)"/><path class="d" d="M51.14,3.4,46.361,7.308A8.771,8.771,0,0,0,33.43,11.9L28.625,7.967h0A14.753,14.753,0,0,1,51.14,3.4Z" transform="translate(-26.975)"/></svg>