<svg xmlns="http://www.w3.org/2000/svg" xmlns:xlink="http://www.w3.org/1999/xlink" width="269.52" height="255.29" viewBox="0 0 269.52 255.29"><defs><style>.a,.ak,.ao,.h,.i{fill:none;}.b{fill:#3fbe18;}.c{fill:url(#a);}.d{fill:url(#b);}.e{fill:url(#c);}.f{fill:#8def6f;}.g{opacity:0.17;}.h,.i{stroke:#2d2d2d;stroke-width:1.2px;}.ak,.h,.i{stroke-miterlimit:10;}.i{stroke-dasharray:3.62 3.62;}.j{fill:url(#d);}.k{fill:url(#e);}.l{fill:url(#f);}.m,.n,.o,.p,.q,.r,.s,.t,.u,.v,.w,.x{fill-rule:evenodd;}.m{fill:url(#g);}.n{fill:url(#h);}.o{fill:url(#i);}.p{fill:#c1e3e3;}.q{fill:url(#j);}.r{fill:url(#k);}.s{fill:#a8bfe2;}.t{fill:#f4f9ff;}.u{fill:#fdfeff;}.v{fill:#e3f0fc;}.w{fill:url(#m);}.x{fill:url(#o);}.y{fill:#cdb982;}.z{fill:url(#p);}.aa{fill:url(#q);}.ab{fill:url(#r);}.ac{fill:url(#s);}.ad{fill:#000b73;}.ae{fill:url(#t);}.af{fill:url(#u);}.ag{fill:url(#v);}.ah{fill:#00e043;}.ai{fill:#009245;}.aj{clip-path:url(#w);}.ak{stroke:#707070;stroke-width:2.29px;}.al{fill:#d4def2;}.am{fill:url(#x);}.an{fill:#fafbff;}.ao{stroke:#b9d2dc;stroke-linecap:round;stroke-linejoin:round;stroke-width:3.6px;}.ap{fill:#fff;}.aq{fill:#0d3eb0;}</style><linearGradient id="a" y1="0.5" x2="1" y2="0.5" gradientUnits="objectBoundingBox"><stop offset="0" stop-color="#8def6f"/><stop offset="1" stop-color="#1f7504"/></linearGradient><linearGradient id="b" y1="0.5" x2="1" y2="0.5" gradientUnits="objectBoundingBox"><stop offset="0" stop-color="#6bded1"/><stop offset="1" stop-color="blue"/></linearGradient><linearGradient id="c" y1="0.5" x2="1" y2="0.5" gradientUnits="objectBoundingBox"><stop offset="0" stop-color="#8def6f"/><stop offset="1" stop-color="#38a517"/></linearGradient><linearGradient id="d" x1="2.845" y1="2.146" x2="2.856" y2="2.146" gradientUnits="objectBoundingBox"><stop offset="0" stop-color="#6bde6b"/><stop offset="0.561" stop-color="#4cff2e"/><stop offset="1" stop-color="#32db13"/></linearGradient><linearGradient id="e" x1="3.751" y1="2.803" x2="3.767" y2="2.803" gradientUnits="objectBoundingBox"><stop offset="0" stop-color="#f8fffe"/><stop offset="1" stop-color="#fff"/></linearGradient><linearGradient id="f" x1="5.798" y1="4.338" x2="5.824" y2="4.338" gradientUnits="objectBoundingBox"><stop offset="0" stop-color="#6fde6b"/><stop offset="1" stop-color="#00ff2b"/></linearGradient><linearGradient id="g" y1="0.5" x2="1" y2="0.5" gradientUnits="objectBoundingBox"><stop offset="0" stop-color="blue"/><stop offset="0.35" stop-color="#0005c3"/><stop offset="0.64" stop-color="#000898"/><stop offset="0.87" stop-color="#000a7d"/><stop offset="1" stop-color="#000b73"/></linearGradient><linearGradient id="h" x1="0" y1="0.5" x2="1" y2="0.5" xlink:href="#g"/><linearGradient id="i" x1="-0.003" y1="0.5" x2="0.995" y2="0.5" xlink:href="#g"/><linearGradient id="j" y1="0.5" x2="1" y2="0.5" gradientUnits="objectBoundingBox"><stop offset="0" stop-color="#eaf3fe"/><stop offset="0.57" stop-color="#e2eefd"/><stop offset="1" stop-color="#d9e8fc"/></linearGradient><linearGradient id="k" x1="0" y1="0.499" x2="1" y2="0.499" xlink:href="#j"/><linearGradient id="m" x1="-0.002" y1="0.499" x2="1" y2="0.499" xlink:href="#j"/><linearGradient id="o" x1="0" y1="0.498" x2="1" y2="0.498" xlink:href="#j"/><linearGradient id="p" y1="0.5" x2="1" y2="0.5" gradientUnits="objectBoundingBox"><stop offset="0" stop-color="#d7ebff"/><stop offset="0.11" stop-color="#e0f0ff"/><stop offset="0.37" stop-color="#f2f8ff"/><stop offset="0.65" stop-color="#fcfdff"/><stop offset="1" stop-color="#fff"/></linearGradient><radialGradient id="q" cx="0.458" cy="0.4" r="0.586" gradientTransform="matrix(-0.246, -0.957, 0.809, -0.291, 99.829, 19.487)" gradientUnits="objectBoundingBox"><stop offset="0" stop-color="#1c5cca"/><stop offset="0.06" stop-color="#1a55c3"/><stop offset="0.48" stop-color="#0c2d98"/><stop offset="0.81" stop-color="#03147d"/><stop offset="1" stop-color="#000b73"/></radialGradient><radialGradient id="r" cx="0.5" cy="0.5" r="0.604" gradientTransform="translate(0.139) scale(0.722 1)" xlink:href="#q"/><linearGradient id="s" x1="0.386" y1="0.5" x2="0.938" y2="0.5" gradientUnits="objectBoundingBox"><stop offset="0" stop-color="#fff"/><stop offset="0.73" stop-color="#d7ebff"/></linearGradient><linearGradient id="t" x1="0" y1="0.5" x2="1" y2="0.5" xlink:href="#p"/><radialGradient id="u" cx="0.5" cy="0.5" fy="0.12201434373855591" r="1.058" gradientTransform="translate(-0.033) scale(1.066 1)" gradientUnits="objectBoundingBox"><stop offset="0" stop-color="#e4e8ef"/><stop offset="0.26" stop-color="#e1e7ef"/><stop offset="0.42" stop-color="#d9e2f1"/><stop offset="0.56" stop-color="#cad9f3"/><stop offset="0.62" stop-color="#c1d4f4"/></radialGradient><radialGradient id="v" cx="0.503" cy="0.707" fx="0.2981738746166229" r="0.572" gradientTransform="matrix(-0.006, -1, 0.82, -0.03, -0.114, 1.262)" gradientUnits="objectBoundingBox"><stop offset="0" stop-color="#e4e8ef"/><stop offset="1" stop-color="#b5cae8"/></radialGradient><clipPath id="w"><path class="a" d="M446.245,286.827a32.86,32.86,0,1,0-.3,65.72l.6,0a32.86,32.86,0,1,0-.3-65.72Z" transform="translate(-413.235 -286.825)"/></clipPath><linearGradient id="x" x1="0" x2="0.999" xlink:href="#b"/></defs><g transform="translate(-9.019 -10.66)"><g transform="translate(9.686 10.66)"><rect class="b" width="2.759" height="157.702" transform="translate(190.595 8.399)"/><path class="c" d="M391.856,63.051c0,5.147-9.7,9.319-21.668,9.319S348.52,68.2,348.52,63.051s9.7-17.551,21.668-17.551S391.856,57.9,391.856,63.051Z" transform="translate(-178.216 -27.989)"/><ellipse class="d" cx="18.552" cy="9.319" rx="18.552" ry="9.319" transform="translate(173.421)"/><path class="e" d="M351.636,29.2,348.52,54.944h43.336L388.74,29.2Z" transform="translate(-178.216 -19.881)"/><path class="f" d="M16.385,0c9.049,0,16.385,3.686,16.385,8.233s-7.336,8.233-16.385,8.233S0,12.78,0,8.233,7.336,0,16.385,0Z" transform="translate(175.587 1.086)"/><g class="g" transform="translate(130.954 43.354)"><path class="h" d="M270.23,183.666l.88-.226" transform="translate(-270.23 -139.952)"/><path class="i" d="M275.46,139.922c6.323-1.84,12.219-4.634,16.41-9.987,6.1-7.8,9.58-16.747,9.248-26.764-.4-12.138-12.113-3.88-6.831,1.955,2.573,2.845,6.9,3.1,10.736,2.9,9.816-.533,19.507-2.785,29.338-2.97s20.311,2.041,27.242,9.017c7.539,7.6,9.374,19.165,9.49,29.891.09,8.147-.593,16.426-3.428,24.065-2.624,7.072-7.253,13.6-13.651,17.536" transform="translate(-272.831 -96.916)"/><path class="h" d="M429.414,274.2l-.794.432" transform="translate(-349.01 -185.094)"/></g><path class="j" d="M94.1,148.1v-2.413a65.042,65.042,0,1,1,0-.02v4.825A69.864,69.864,0,0,1,24.24,80.624h0A69.864,69.864,0,1,1,94.1,150.488h0Z" transform="translate(-16.925 -10.71)"/><path class="k" d="M113.641,147.85v-2.413a45.306,45.306,0,1,0-45.3-45.3,45.307,45.307,0,0,0,45.3,45.3v4.825a50.131,50.131,0,1,1,50.141-50.133,50.129,50.129,0,0,1-50.141,50.133Z" transform="translate(-36.462 -30.227)"/><path class="l" d="M133.168,147.644v-2.413a25.563,25.563,0,1,0-25.558-25.56,25.564,25.564,0,0,0,25.558,25.56v4.825a30.388,30.388,0,1,1,30.388-30.387,30.388,30.388,0,0,1-30.388,30.387Z" transform="translate(-55.989 -49.764)"/><path class="m" d="M185.408,475.6,183.8,493.609a4.45,4.45,0,0,0,2.93,1.171,4.087,4.087,0,0,0,3.222-1.171l5.564-22.849Z" transform="translate(-96.287 -239.505)"/><path class="n" d="M464.15,326.054l5.715,13.772s2.93,2.639,5.418,0l-2.634-20.215Z" transform="translate(-235.728 -164.326)"/><path class="o" d="M79.615,417.58,78.61,430.03s.442.734,2.513.734a3.064,3.064,0,0,0,2.779-1.317l2.639-11.867Z" transform="translate(-43.967 -213.054)"/><path class="p" d="M399.7,295.875a5.5,5.5,0,0,0,.04.819v.065c.025.241.055.472.1.7v.085c.045.216.1.422.161.618a.134.134,0,0,0,.035.111,5.584,5.584,0,0,0,.211.533v.055a4.028,4.028,0,0,0,.3.543l.045.065a3.656,3.656,0,0,0,.292.382l.111.126c.09.1.186.186.281.271l.121.1a3.164,3.164,0,0,0,.432.3l-67.582-39.315a3.607,3.607,0,0,1-.427-.3l-.121-.106a3.586,3.586,0,0,1-.281-.271l-.116-.126a4.415,4.415,0,0,1-.287-.382l-.045-.06h0a3.782,3.782,0,0,1-.282-.5h0a.311.311,0,0,0,0-.06c-.05-.111-.1-.226-.146-.347l-.06-.186a.433.433,0,0,0-.035-.106c-.01-.035-.025-.065-.035-.1-.035-.121-.065-.251-.1-.382a1.321,1.321,0,0,1-.03-.136v-.09l-.03-.136a3.051,3.051,0,0,0-.05-.357.786.786,0,0,0-.025-.2v-.87h0Z" transform="translate(-170.088 -132.996)"/><path class="q" d="M399.352,233.14l.121,31.509-67.622-39.3-.121-31.509Z" transform="translate(-169.865 -101.77)"/><path class="r" d="M405.318,207.615l-.075.055c-.216.181-.427.362-.633.558l-.075.065c-.211.2-.417.407-.618.623a.47.47,0,0,0-.05.05c-.216.231-.427.467-.628.714h0a18.065,18.065,0,0,0-1.126,1.508c-.106.156-.2.322-.3.5s-.166.261-.246.4c-.04.065-.075.131-.111.2q-.2.337-.377.694l-.035.075q-.221.427-.407.859v.05q-.186.422-.347.859a.185.185,0,0,0,0,.055c-.111.3-.211.588-.3.885v.055c-.085.287-.161.573-.226.854v.085c-.065.292-.126.583-.171.875s-.08.588-.106.875a.3.3,0,0,1,0,.07c0,.292-.035.578-.035.865l-67.718-39.28v-1.055a2.92,2.92,0,0,1,.04-.367c.015-.121.035-.251.055-.372h0a1.034,1.034,0,0,1,.06-.347l.075-.392A.674.674,0,0,1,332,177.5a.512.512,0,0,1,0-.085.255.255,0,0,1,.04-.166c.03-.136.065-.266.1-.4s.055-.191.085-.292v-.1c.04-.131.08-.256.126-.387s.085-.256.131-.382a.291.291,0,0,0,.025-.07v-.055c.03-.08.055-.161.085-.236s.1-.246.146-.367l.116-.256v-.045a.063.063,0,0,1,.025-.05c.05-.121.105-.241.161-.362l.191-.392.03-.06a.552.552,0,0,0,.04-.075l.161-.312c.07-.131.146-.256.216-.382s.07-.131.111-.2l.04-.08.206-.322c.1-.161.2-.322.3-.5l.045-.075c.151-.226.312-.452.472-.674l.332-.432.276-.342h0c.1-.116.191-.226.292-.337s.191-.216.286-.322a.472.472,0,0,0,.05-.05l.05-.05c.065-.075.136-.146.206-.221l.317-.307.1-.09.07-.07.161-.146c.106-.1.221-.2.332-.286a1.683,1.683,0,0,1,.146-.121l.075-.06.106-.09.332-.251.236-.166.045-.035.04-.03.317-.206.317-.2.07-.04.146-.085.241-.131c.1-.055.2-.111.307-.161l.191-.09.05-.025h.055l.3-.126.3-.116h.1l.2-.065.307-.085.146-.035h.161a2.463,2.463,0,0,1,.327-.055H342.9a4.068,4.068,0,0,1,.432.065h0l.1.025c.141.035.281.07.412.116h.035a3.724,3.724,0,0,1,.573.266L412.234,206a3.3,3.3,0,0,0-.573-.266,3.515,3.515,0,0,0-.447-.131l-.1-.025a4.018,4.018,0,0,0-.558-.07h-.116a5.416,5.416,0,0,0-.568,0h-.07a4.591,4.591,0,0,0-.618.09h-.06a6.84,6.84,0,0,0-.658.186h-.045c-.231.08-.467.171-.709.281h-.045a7.4,7.4,0,0,0-.739.387l-.151.085c-.251.146-.5.3-.744.472l-.045.03C405.751,207.263,405.54,207.434,405.318,207.615Z" transform="translate(-169.865 -88.097)"/><path class="s" d="M473.7,245.333l.151-.085c4.111-2.377,7.464-.467,7.479,4.257l.121,31.514a16.421,16.421,0,0,1-7.429,12.862l-.151.085c-4.111,2.372-7.464.473-7.479-4.257l-.121-31.524A16.384,16.384,0,0,1,473.7,245.333Z" transform="translate(-236.782 -126.831)"/><path class="t" d="M242.172,169.89l10.143,56.851c.045.256.085.5.121.764a1.57,1.57,0,0,0,.03.377c0,.211.035.417.05.623s0,.5,0,.734v.578c0,.191-.035.457-.06.679s-.04.352-.07.5-.09.417-.141.618-.075.317-.126.462-.141.377-.216.558-.111.276-.171.4-.2.337-.3.5-.131.221-.206.322a5.129,5.129,0,0,1-.412.457c-.07.075-.136.156-.211.226a4.2,4.2,0,0,1-.724.533L129.937,304.8a4.129,4.129,0,0,0,.724-.533c-2.232-4.946-8.635-63.114-8.871-64.456Z" transform="translate(-65.444 -89.858)"/><path class="u" d="M94.992,210.8l-.442-.045h-.784l-.286.035a.777.777,0,0,0-.261.03l-.221.05-.286.07-.211.075a2.524,2.524,0,0,0-.271.1l-.216.1c-.085.045-.176.085-.261.136h0l119.965-69.723a.166.166,0,0,1,.05-.03c.065-.04.141-.07.211-.106s.141-.075.216-.106h.025c.08-.035.166-.06.246-.09l.211-.07h0c.085-.025.181-.04.271-.06a1.679,1.679,0,0,1,.216-.05h0a.719.719,0,0,0,.246-.03c.085-.03.186,0,.281-.03h.784a1.725,1.725,0,0,1,.447.04h.07l.146.03c.176.03.357.07.538.116l.136.03.287.08.176.055a7.814,7.814,0,0,1,.789.286l.171.075.191.09a9.89,9.89,0,0,1,.92.467c.261.151.5.317.779.5l.271.2c.166.121.332.236.5.362s.2.161.3.241l.452.377c.106.09.206.191.312.287l.417.392h0l.07.075c.276.276.543.563.8.859l.121.126.146.181c.141.161.276.332.412.5.06.07.121.141.176.216l.121.156.3.407.2.261c.04.06.08.126.126.186l.236.352.166.251.161.261.2.322.116.186.221.392.151.276c0,.035.035.065.05.1q.2.382.392.769h0v.03c.121.246.236.5.347.749a.718.718,0,0,0,.04.111c.045.1.08.2.126.3s.111.271.161.407.05.136.075.206.09.241.131.362l.106.286c.03.09.055.186.08.276s.09.281.131.427c.025.07.05.146.07.221s.045.186.065.276c.05.186.1.377.141.563a1.239,1.239,0,0,0,.055.226c.035.181.075.362.106.543l-119.9,69.723c-.045-.256-.106-.5-.161-.769s-.09-.377-.141-.563-.085-.332-.136-.5-.085-.286-.131-.427-.121-.377-.186-.563-.085-.241-.131-.362c-.075-.206-.156-.407-.236-.613-.045-.1-.08-.2-.126-.3-.121-.287-.246-.568-.382-.844v-.04c-.141-.292-.287-.583-.442-.87l-.156-.276-.332-.578-.2-.322-.327-.5c-.08-.121-.156-.236-.241-.352s-.211-.3-.317-.452-.2-.271-.3-.4l-.3-.377c-.136-.166-.271-.337-.412-.5l-.266-.3a9.255,9.255,0,0,0-.8-.859l-.1-.1c-.136-.136-.276-.261-.417-.387s-.2-.2-.307-.287-.3-.251-.452-.377-.2-.166-.3-.241-.327-.246-.5-.362l-.271-.2c-.256-.176-.5-.337-.779-.5a9.877,9.877,0,0,0-.92-.472l-.191-.085a9.326,9.326,0,0,0-.96-.362l-.181-.055c-.141-.045-.276-.075-.417-.111a5.432,5.432,0,0,0-.538-.116Z" transform="translate(-50.503 -75.519)"/><path class="s" d="M93.527,280.02l.181.055a10.126,10.126,0,0,1,2.071.92c4.142,2.392,7.881,7.826,8.846,13.224l10.143,56.831c1.126,6.293-1.94,10.163-6.851,8.635l-.181-.055a9.864,9.864,0,0,1-2.071-.92c-4.142-2.392-7.886-7.826-8.851-13.224L86.671,288.65C85.551,282.357,88.617,278.492,93.527,280.02Z" transform="translate(-47.862 -144.469)"/><path class="v" d="M144.118,340.746l-.452-.181c-.216-.08-.432-.156-.638-.221l-.412-.116c-.121-.03-.246-.055-.367-.075a4.256,4.256,0,0,0-.5-.075l-.271-.03h-.719a5.758,5.758,0,0,0-.674.085l-.161.035c-.171.04-.337.091-.5.146l-.156.055a4.3,4.3,0,0,0-.593.286l119.98-69.728.05-.03a4.283,4.283,0,0,1,.457-.221.106.106,0,0,0,.091-.035l.151-.05c.08-.03.156-.06.241-.085s.176-.04.261-.06l.161-.04h.085a5,5,0,0,1,.553-.06h.171a4.1,4.1,0,0,1,.432,0h.151l.276.025.251.025.231.05a1.7,1.7,0,0,1,.372.08l.2.04.206.07c.211.065.422.141.638.226l.226.075.226.1.216.1c.276.131.558.271.839.437l-119.965,69.7c-.286-.161-.563-.3-.839-.432Z" transform="translate(-73.84 -139.819)"/><path class="q" d="M228.384,408.132,348.364,338.6v.236a9.34,9.34,0,0,1-.412,2.86,6.116,6.116,0,0,1-.689,1.473,4.921,4.921,0,0,1-.452.6,4.436,4.436,0,0,1-1.106.91L225.74,414.395C227.379,413.445,228.384,411,228.384,408.132Z" transform="translate(-117.147 -173.771)"/><path class="v" d="M221.982,391.453a4.215,4.215,0,0,0-.08-.653c-.035-.221-.08-.5-.126-.729-.03-.166-.06-.332-.1-.5s-.075-.312-.116-.467-.111-.432-.171-.648c-.04-.126-.075-.251-.116-.377-.075-.241-.161-.5-.246-.729l-.106-.3c-.131-.337-.261-.669-.4-1.005a1.073,1.073,0,0,1-.05-.111q-.2-.447-.422-.89l-.136-.271c-.146-.276-.292-.548-.447-.819l-.085-.161c-.186-.317-.377-.628-.573-.93-.06-.091-.121-.176-.176-.266l-.452-.653-.256-.337c-.131-.181-.271-.357-.412-.528s-.231-.291-.352-.432l-.347-.392c-.2-.221-.4-.437-.608-.648l-.387-.387-.307-.286c-.171-.156-.342-.307-.5-.452l-.312-.256c-.186-.151-.382-.291-.573-.432l-.276-.2c-.286-.2-.578-.382-.87-.553l76.594-51.5,43.356-18.2c.3.166.583.352.87.548l.276.2c.191.141.387.281.573.432.106.085.211.171.312.261s.347.292.5.447l.307.286.2.181c.065.065.126.141.191.206.206.211.407.427.608.648l.2.206.151.186c.121.141.236.286.357.432s.156.186.231.286.121.161.176.241l.256.342c.055.08.116.156.176.236s.181.276.276.412.116.176.176.266l.075.111q.241.377.467.769l.03.055.09.156c.106.186.211.372.307.558l.136.261.141.276c.035.08.08.156.116.236.106.216.2.432.3.648a1.06,1.06,0,0,0,.05.111v.035q.176.407.332.814l.055.151.106.307c.05.136.106.266.146.4s.065.216.1.322.08.251.116.377.05.156.07.231.065.281.1.417.08.317.116.467a.991.991,0,0,0,.04.166c.01.055.035.221.055.332.05.246.09.5.126.729a.4.4,0,0,0,.035.2c0,.151.03.3.045.452s.025.216.03.327c.025.337.045.679.04,1.005l-119.95,69.718a8.447,8.447,0,0,0-.04-1.005Z" transform="translate(-110.801 -158.218)"/><path class="t" d="M182.436,359.854,302.4,290.135,271.57,272.77,151.6,342.488Z" transform="translate(-80.271 -141.029)"/><path class="p" d="M129.664,415.456c0-5.785,4.106-8.117,9.148-5.212l30.856,17.35c5.026,2.91,9.1,9.957,9.087,15.742v.211c0,5.785-4.111,8.117-9.148,5.207L127.694,425.03c-5.026-2.91,1.975-3.594,2.01-9.374Z" transform="translate(-67.478 -208.784)"/><path class="w" d="M139.38,446.364a5.456,5.456,0,0,0,.04.819v.07c.025.241.06.472.1.694a.585.585,0,0,1,0,.09,6.2,6.2,0,0,0,.161.618.871.871,0,0,0,.035.106,5.111,5.111,0,0,0,.206.533l.025.06a5.572,5.572,0,0,0,.3.543.749.749,0,0,1,.05.065q.136.2.286.377l.116.126c.09.1.181.186.276.271l.121.106a3.462,3.462,0,0,0,.432.3l-67.6-39.3a3.476,3.476,0,0,1-.432-.3l-.121-.106a3.53,3.53,0,0,1-.276-.271,1.371,1.371,0,0,1-.116-.126c-.1-.116-.2-.246-.292-.377l-.045-.065h0a4.976,4.976,0,0,1-.281-.5h0v-.06c-.05-.111-.1-.226-.146-.347s-.04-.121-.06-.181,0-.075-.04-.111l-.03-.1c-.035-.121-.07-.246-.1-.377a1.375,1.375,0,0,1,0-.141.58.58,0,0,1,0-.09,1.286,1.286,0,0,1,0-.136,2.846,2.846,0,0,0-.055-.352.917.917,0,0,1,0-.206v-.156a1.682,1.682,0,0,0-.025-.352,1.692,1.692,0,0,1,0-.357h0Z" transform="translate(-40.629 -207.857)"/><path class="q" d="M139,383.61l.121,31.509L71.5,375.824,71.38,344.31Z" transform="translate(-40.371 -176.611)"/><path class="x" d="M144.963,358.1l-.07.06c-.216.176-.427.362-.638.553l-.07.07q-.317.3-.618.618l-.05.05c-.216.231-.427.467-.633.714h0a17.828,17.828,0,0,0-1.131,1.508c-.1.161-.2.322-.3.5s-.171.266-.246.4l-.116.2c-.126.226-.251.457-.372.694l-.04.075c-.146.286-.281.573-.407.864a.181.181,0,0,1,0,.045c-.121.281-.236.573-.347.859v.055c-.106.3-.206.593-.3.89v.05c-.085.286-.161.573-.231.854v.085c-.065.292-.121.583-.171.875h0q-.07.447-.106.875a.382.382,0,0,0,0,.075c-.025.286-.035.578-.035.859L71.38,330.657V329.6a1.144,1.144,0,0,1,.04-.367,2.363,2.363,0,0,0,.05-.372h0l.06-.352a1.709,1.709,0,0,1,.08-.387l.03-.141v-.08a.263.263,0,0,1,.04-.171,2.857,2.857,0,0,0,.106-.4c.04-.131.055-.191.08-.287a.246.246,0,0,0,0-.055.191.191,0,0,1,0-.05c.035-.131.08-.256.121-.387l.136-.377a.291.291,0,0,1,0-.07v-.06l.09-.236c.045-.121.1-.241.146-.362s.07-.176.111-.261a.181.181,0,0,1,0-.045v-.05l.166-.362c.06-.131.126-.261.191-.392l.03-.06a.548.548,0,0,1,.04-.075c.05-.106.106-.206.161-.312s.141-.251.211-.382.075-.131.111-.2l.045-.075.2-.327.3-.5a.656.656,0,0,0,.05-.075c.151-.231.312-.452.472-.674s.216-.292.332-.437l.271-.342h0l.286-.337c.1-.106.191-.216.292-.317l.045-.055.055-.05.206-.216.312-.312.1-.09.07-.07.156-.146.332-.286.146-.121.075-.06.111-.09.327-.251.236-.166.045-.035h.045c.1-.075.206-.141.317-.211l.312-.191.075-.045.146-.085.236-.131.307-.161.2-.091h.05l.055-.03.3-.126c.1-.04.2-.08.3-.111h.1l.2-.065.312-.085.146-.03H81.1l.327-.055h1.071a3.005,3.005,0,0,1,.427.06h0l.1.03a3.019,3.019,0,0,1,.417.116h.03a3.733,3.733,0,0,1,.573.266l67.843,39.154a3.9,3.9,0,0,0-.568-.266,4.28,4.28,0,0,0-.452-.131l-.1-.025a4.962,4.962,0,0,0-.558-.07H150.1a5.424,5.424,0,0,0-.568,0h-.065a5.607,5.607,0,0,0-.618.1h-.065a6.758,6.758,0,0,0-.653.186h-.05a7.322,7.322,0,0,0-.7.281l-.05.025a6.875,6.875,0,0,0-.739.382l-.146.085c-.251.146-.5.3-.744.473l-.045.035C145.411,357.753,145.185,357.924,144.963,358.1Z" transform="translate(-40.371 -162.958)"/><path class="s" d="M213.349,395.8l.146-.086c4.116-2.377,7.464-.467,7.479,4.262l.121,31.509a16.4,16.4,0,0,1-7.429,12.862l-.146.086c-4.116,2.372-7.464.472-7.479-4.257l-.121-31.509A16.369,16.369,0,0,1,213.349,395.8Z" transform="translate(-107.289 -201.672)"/><path class="y" d="M175.589,259.5s-2.468-4-1.809,19.336l.955,15.013,4.413-.281a55.631,55.631,0,0,1,3.936-20.738C187.405,262.317,175.589,259.5,175.589,259.5Z" transform="translate(-91.247 -134.3)"/><path class="z" d="M204.006,282.114a6.107,6.107,0,0,1-3.1,3.222,8.871,8.871,0,0,1-4.463.749,5.283,5.283,0,0,1-3.277-1.2,6.665,6.665,0,0,1-1.3-1.945c-.754-1.468-1.392-3.518-2.659-4.524-.578-.5-1.171-.94-1.759-1.412-2.654-2.151-5.283-4.338-7.821-6.63-2.217-2.01-5.127-4.021-5.991-7.067a6.481,6.481,0,0,1-.176-.88,4.589,4.589,0,0,1,.08-1.9,2.161,2.161,0,0,1,1.206-1.417,2.247,2.247,0,0,1,1.568.04,6.708,6.708,0,0,1,1.4.774c1.709,1.131,3.453,2.106,5.076,3.383s3.111,2.583,4.735,3.795a29.881,29.881,0,0,0,12.425,5.584,79.085,79.085,0,0,0,9.293,1.126,1.441,1.441,0,0,1,.623.131,1.251,1.251,0,0,1,.5.658,5.675,5.675,0,0,1-1.764,6.534,8.6,8.6,0,0,1-5.368,1.387,8.77,8.77,0,0,1-3.835-.779,5.906,5.906,0,0,1-3.016-6.474" transform="translate(-91.111 -134.173)"/><path class="y" d="M156.271,333.3s-3.86,3.755,3.368-22.01l5.242-16.426,4.825,1.543a63.737,63.737,0,0,0-1.392,24.161C170.2,333.451,156.271,333.3,156.271,333.3Z" transform="translate(-82.082 -152.016)"/><path class="y" d="M425.661,215.89l3.925-.447a14.1,14.1,0,0,1,3.287.241,1.7,1.7,0,0,0,1.417,0l3.423-6.614-2.82-.849s-1.945,2.252-2.795,2.367a25.816,25.816,0,0,1-2.905.04l-4.735-.1Z" transform="translate(-215.987 -108.923)"/><path class="y" d="M449.289,195.284c-.528,3.719-2.413,7.6-5.237,6.821-1.005-.281-3.232-.945-3.232-.945,2.448-1.654,2.669-7.1,2.212-7.4,0,0,4.247-14.405,5.936-14.576a3.046,3.046,0,0,1,.749.131C451.315,179.969,449.762,191.947,449.289,195.284Z" transform="translate(-224.124 -94.479)"/><path class="y" d="M483.519,217.524s5.112-.432,6.067-.382,3.217-11.218-4.936-5.78c-1.005.678-4.7,1.4-4.7,1.4Z" transform="translate(-243.586 -109.748)"/><path class="y" d="M499.553,195.6c-.156,3.644-.965,6.64-3.9,6.69a33.611,33.611,0,0,1-3.438-.4c1.865-1.211,1.89-7.072.8-7.157,0,0,3.2-15.079,4.81-15.767a3.242,3.242,0,0,1,.779-.1C500.393,179.041,499.709,192,499.553,195.6Z" transform="translate(-249.689 -94.324)"/><path class="aa" d="M285.921,255.2c-1.613-23.96,1.171-59.676,14.264-63.667,8.7-2.654,60.721,9.731,60.721,9.731s.97,4.694-.412,6.3c-4.021,1.171-51.091-7.283-52.624-.04-2.981,14.073,3.041,43.678,3.041,43.678Z" transform="translate(-146.875 -100.436)"/><path class="ab" d="M312.037,283.787c14.184-4.4,15.838-46.809,21.11-49.5,8.595-4.383,57.354-14.631,57.354-14.631,1.357-1.272.412-5.911-1.091-5.458,0,0-63.983,5.931-67.557,8.2-6.062,3.85-11.56,23.708-18.793,32.545-2.418,2.96-9.781,11.425-9.781,11.425S288.816,290.984,312.037,283.787Z" transform="translate(-150.569 -111.881)"/><path class="ac" d="M261.532,309.957s5.162,13.068-23.055,17.923c-23.462,4.051-35.274-2.91-52.775-19.788-16.38-15.807-3.212-24.9,5.494-26.136.89-.126,12.52,2.739,25.634,3.016,6.569.136,14.073.126,19.672-2.237,6.589-2.769,22.97,23.869,22.97,23.869l-12.932,6.1Z" transform="translate(-93.354 -145.596)"/><path class="y" d="M160.92,277.775c12.565-2.724,13.892-1.252,15.033,1.081s-.156,3.378.769,6.192,3.423,1.875,5.936,3.584c1.739,1.186-2.754,5.328-6.031,5.383s-5.886,1.332-7.539-3.016-4.363-3.322-7.871-7.509S160.92,277.775,160.92,277.775Z" transform="translate(-84.239 -142.786)"/><path class="ad" d="M150.3,281.377c1.432-7.424,5.81-3.935,7.037-1.784,1.654,2.935,5.418,5.644,5.418,5.644-1.508,5.323,4.021,3.745,4.021,2.227.045-2.277,2.664,5.876,9.605,3.85s5.087,5.866,1.659,11.389c-3.1,5.026,2.423,11.666,7.569,15.008,4.021,2.614,14.666,7.207,22.251,7.826,12.445,1.005,20.768-1.241,20.768-1.241-2.84,3.267-.457,4.524-3.8,9.5-5.177,7.7-23.3,2.759-30.66-3.936-6.278-5.69-5.262-5.484-15.385-3.352s-10.128-19.949-15.531-23.02C146.866,294.2,148.344,291.54,150.3,281.377Z" transform="translate(-79.046 -143.066)"/><path class="ae" d="M193.458,330.237a7.037,7.037,0,0,0-2.538-4.433,10.223,10.223,0,0,0-4.755-2.076,6.079,6.079,0,0,0-3.976.417,7.918,7.918,0,0,0-2.01,1.8c-1.241,1.422-2.513,3.518-4.212,4.307-.779.372-1.568.719-2.347,1.081-5.423,2.513-10.821,5.056-16.084,7.826a12.369,12.369,0,0,0-1.613.955,6.212,6.212,0,0,0-2.473,5.026,2.769,2.769,0,0,0,1.055,2.332,3.422,3.422,0,0,0,2.558.131,36.33,36.33,0,0,0,6.971-2.081c2.332-1.005,4.584-2.191,6.926-3.172a34.334,34.334,0,0,1,15.375-2.754,90.349,90.349,0,0,1,10.615,1.347,1.628,1.628,0,0,0,.729.025,1.457,1.457,0,0,0,.734-.593,6.534,6.534,0,0,0-.146-7.77,9.74,9.74,0,0,0-5.579-3.016,10.1,10.1,0,0,0-4.483-.2,6.76,6.76,0,0,0-5.127,6.363" transform="translate(-81.191 -166.303)"/><path class="af" d="M145.987,415.594c0,6.75-7.6,44.477-26.589,44.477-20.607,0-26.589-37.726-26.589-44.477s11.9-12.214,26.589-12.214S145.987,408.848,145.987,415.594Z" transform="translate(-51.03 -205.992)"/><ellipse class="ag" cx="21.783" cy="8.841" rx="21.783" ry="8.841" transform="translate(46.338 199.776)"/><path class="ah" d="M115.579,335.83s-.266,14.073,6.906,23.377,8.233,22.311,8.233,22.311S143.735,344.6,115.579,335.83Z" transform="translate(-62.354 -172.393)"/><path class="ah" d="M149.92,398.3s.171-29.152,28.423-27.016c0,0-5.428,11.4-13.169,13.706S149.92,398.3,149.92,398.3Z" transform="translate(-79.436 -189.97)"/><path class="ah" d="M117.3,406.783s-4.252-9.826-13.546-13.279S91.8,378.631,91.8,378.631,118.625,377.3,117.3,406.783Z" transform="translate(-50.528 -193.677)"/><path class="ai" d="M121.55,348.92s12.958,8.147,12.1,26.955C133.653,375.875,131.607,357.957,121.55,348.92Z" transform="translate(-65.325 -178.904)"/><path class="ai" d="M154,397.288a27.674,27.674,0,0,1,18.642-18.8S159.805,383.657,154,397.288Z" transform="translate(-81.465 -193.612)"/><path class="ai" d="M103.69,388.68s11.319.93,16.285,13.943C119.975,402.623,114.049,391.2,103.69,388.68Z" transform="translate(-56.442 -198.68)"/><g class="aj" transform="translate(202.831 138.806)"><path class="ak" d="M480.516,171,405.41,246.106h0L480.516,171" transform="translate(-409.343 -229.216)"/><path class="ak" d="M480.516,245.42,405.41,320.526h0l75.106-75.106" transform="translate(-409.343 -266.231)"/><path class="ak" d="M480.516,319.84,405.41,394.946h0l75.106-75.106" transform="translate(-409.343 -303.246)"/><path class="ak" d="M480.516,185.89l-75.106,75.1h0l75.106-75.1" transform="translate(-409.343 -236.622)"/><path class="ak" d="M480.516,260.31l-75.106,75.1h0l75.106-75.1" transform="translate(-409.343 -273.637)"/><path class="ak" d="M480.516,334.73l-75.106,75.1h0l75.106-75.1" transform="translate(-409.343 -310.652)"/><path class="ak" d="M480.516,200.77,405.41,275.876h0l75.106-75.106" transform="translate(-409.343 -244.023)"/><path class="ak" d="M480.516,275.19,405.41,350.3h0l75.106-75.106" transform="translate(-409.343 -281.038)"/><path class="ak" d="M480.516,349.61l-75.106,75.1h0l75.106-75.1" transform="translate(-409.343 -318.053)"/><path class="ak" d="M480.516,215.65,405.41,290.756h0l75.106-75.106" transform="translate(-409.343 -251.424)"/><path class="ak" d="M480.516,290.07,405.41,365.176h0l75.106-75.106" transform="translate(-409.343 -288.439)"/><path class="ak" d="M480.516,364.49,405.41,439.6h0l75.106-75.106" transform="translate(-409.343 -325.454)"/><path class="ak" d="M480.516,230.54l-75.106,75.1h0l75.106-75.1" transform="translate(-409.343 -258.83)"/><path class="ak" d="M480.516,304.96l-75.106,75.1h0l75.106-75.1" transform="translate(-409.343 -295.845)"/><path class="ak" d="M480.516,379.38l-75.106,75.1h0l75.106-75.1" transform="translate(-409.343 -332.86)"/></g><path class="al" d="M243.5,153.5,204.368,130.92a3.1,3.1,0,0,1-1.508-2.347V97.531c0-.819.668-1.1,1.508-.628L243.5,119.486A3.091,3.091,0,0,1,245,121.828V152.87C244.984,153.689,244.316,153.976,243.5,153.5Z" transform="translate(-105.767 -53.442)"/><path class="am" d="M234.787,158.824l-39.129-22.583a3.1,3.1,0,0,1-1.508-2.347V102.853c0-.814.668-1.1,1.508-.628l39.129,22.583a3.1,3.1,0,0,1,1.508,2.347V158.2C236.295,159.01,235.6,159.3,234.787,158.824Z" transform="translate(-101.435 -56.089)"/><path class="an" d="M233.2,159.464l-39.129-22.583a3.1,3.1,0,0,1-1.508-2.347V103.493c0-.814.668-1.1,1.508-.628L233.2,125.437a3.106,3.106,0,0,1,1.508,2.347v31.042C234.684,159.655,234,159.937,233.2,159.464Z" transform="translate(-100.644 -56.407)"/><line class="ao" x2="25.292" y2="14.606" transform="translate(97.842 58.394)"/><line class="ao" x2="21.055" y2="12.244" transform="translate(97.842 64.054)"/><line class="ao" x2="15.29" y2="9.449" transform="translate(97.842 69.708)"/><path class="ah" d="M251.944,186.231l-7.509-4.4a5.833,5.833,0,0,1-2.8-4.423h0c0-1.543,1.262-2.076,2.8-1.186l7.509,4.4a5.84,5.84,0,0,1,2.81,4.423h0C254.753,186.588,253.487,187.12,251.944,186.231Z" transform="translate(-125.051 -92.794)"/><path class="ap" d="M255.051,197.091h-.08a.638.638,0,0,1-.372-.322l-1.543-2.855-.875,1.623a.362.362,0,0,1-.317.186.5.5,0,0,1-.256-.08.708.708,0,0,1-.3-.437L248.8,183.943a.392.392,0,0,1,.256-.5h.1a.533.533,0,0,1,.4.216l7.931,9.419a.689.689,0,0,1,.166.5.367.367,0,0,1-.362.332h-.116l-2.01-.558,1.508,2.749a.6.6,0,0,1,.08.347.372.372,0,0,1-.261.332l-1.312.367h-.1Z" transform="translate(-128.606 -96.598)"/><path class="aq" d="M248.894,183.368a.3.3,0,0,1,.206.126l7.931,9.419a.422.422,0,0,1,.106.291.11.11,0,0,1-.111.116h-.045L254.4,192.6l1.769,3.272a.352.352,0,0,1,.05.2.1.1,0,0,1-.075.111l-1.282.362h-.075a.4.4,0,0,1-.221-.2l-1.764-3.267-1.1,2.036a.105.105,0,0,1-.1.055.232.232,0,0,1-.116-.04.468.468,0,0,1-.2-.281l-2.513-11.264c-.025-.1,0-.181.07-.2h.035m0-.5a.782.782,0,0,0-.156,0,.648.648,0,0,0-.442.8l2.513,11.264a.97.97,0,0,0,.407.593.7.7,0,0,0,.392.121.6.6,0,0,0,.538-.317l.653-1.216,1.322,2.443a.915.915,0,0,0,.528.447.562.562,0,0,0,.181,0,.533.533,0,0,0,.176,0l1.272-.357a.628.628,0,0,0,.442-.553.85.85,0,0,0-.111-.5L255.4,193.37l1.438.4a.745.745,0,0,0,.181.025.618.618,0,0,0,.608-.558.9.9,0,0,0-.221-.673l-7.931-9.424a.789.789,0,0,0-.588-.3Z" transform="translate(-128.354 -96.299)"/><g class="g" transform="translate(0 88.878)"><path class="h" d="M88.795,355.29h-.9" transform="translate(-48.583 -270.951)"/><path class="i" d="M47.173,272.173c-16.174-.6-31.524-12.284-36.068-27.88-4.795-16.471,2.915-35.736,17.752-44.346,14.35-8.328,32.082-6.655,48.674-6.564A276.819,276.819,0,0,0,130.4,188.17" transform="translate(-9.686 -187.828)"/><path class="h" d="M251.63,187.661l.89-.171" transform="translate(-130.024 -187.49)"/></g></g></g></svg>